<svg width="1448" height="494" viewBox="0 0 1448 494" fill="none" xmlns="http://www.w3.org/2000/svg">
<g clip-path="url(#clip0_6447_8192)">
<path d="M33.1953 0V1120.69" stroke="#EEEDE9"/>
<path d="M70.1953 0V1120.69" stroke="#EEEDE9"/>
<path d="M107.195 0V1120.69" stroke="#EEEDE9"/>
<path d="M144.195 0V1120.69" stroke="#EEEDE9"/>
<path d="M181.195 0V1120.69" stroke="#EEEDE9"/>
<path d="M218.195 0V1120.69" stroke="#EEEDE9"/>
<path d="M255.195 0V1120.69" stroke="#EEEDE9"/>
<path d="M292.195 0V1120.69" stroke="#EEEDE9"/>
<path d="M329.195 0V1120.69" stroke="#EEEDE9"/>
<path d="M366.195 0V1120.69" stroke="#EEEDE9"/>
<path d="M403.195 0V1120.69" stroke="#EEEDE9"/>
<path d="M440.195 0V1120.69" stroke="#EEEDE9"/>
<path d="M477.195 0V1120.69" stroke="#EEEDE9"/>
<path d="M514.195 0V1120.69" stroke="#EEEDE9"/>
<path d="M551.195 0V1120.69" stroke="#EEEDE9"/>
<path d="M588.195 0V1120.69" stroke="#EEEDE9"/>
<path d="M625.195 0V1120.69" stroke="#EEEDE9"/>
<path d="M662.195 0V1120.69" stroke="#EEEDE9"/>
<path d="M699.195 0V1120.69" stroke="#EEEDE9"/>
<path d="M736.195 0V1120.69" stroke="#EEEDE9"/>
<path d="M773.195 0V1120.69" stroke="#EEEDE9"/>
<path d="M810.195 0V1120.69" stroke="#EEEDE9"/>
<path d="M847.195 0V1120.69" stroke="#EEEDE9"/>
<path d="M884.195 0V1120.69" stroke="#EEEDE9"/>
<path d="M921.195 0V1120.69" stroke="#EEEDE9"/>
<path d="M958.195 0V1120.69" stroke="#EEEDE9"/>
<path d="M995.195 0V1120.69" stroke="#EEEDE9"/>
<path d="M1032.2 0V1120.69" stroke="#EEEDE9"/>
<path d="M1069.2 0V1120.69" stroke="#EEEDE9"/>
<path d="M1106.2 0V1120.69" stroke="#EEEDE9"/>
<path d="M1143.2 0V1120.69" stroke="#EEEDE9"/>
<path d="M1180.2 0V1120.69" stroke="#EEEDE9"/>
<path d="M1217.2 0V1120.69" stroke="#EEEDE9"/>
<path d="M1254.2 0V1120.69" stroke="#EEEDE9"/>
<path d="M1291.2 0V1120.69" stroke="#EEEDE9"/>
<path d="M1328.2 0V1120.69" stroke="#EEEDE9"/>
<path d="M1365.2 0V1120.69" stroke="#EEEDE9"/>
<path d="M1402.2 0V1120.69" stroke="#EEEDE9"/>
<path d="M-4 0H1439.4" stroke="#EEEDE9"/>
<path d="M-4 44.8359H1439.4" stroke="#EEEDE9"/>
<path d="M-4 89.6719H1439.4" stroke="#EEEDE9"/>
<path d="M-4 134.523H1439.4" stroke="#EEEDE9"/>
<path d="M-4 179.352H1439.4" stroke="#EEEDE9"/>
<path d="M-4 224.203H1439.4" stroke="#EEEDE9"/>
<path d="M-4 269.023H1439.4" stroke="#EEEDE9"/>
<path d="M-4 313.867H1439.4" stroke="#EEEDE9"/>
<path d="M-4 358.711H1439.4" stroke="#EEEDE9"/>
<path d="M-4 403.539H1439.4" stroke="#EEEDE9"/>
<path d="M-4 448.391H1439.4" stroke="#EEEDE9"/>
<path d="M-4 493.234H1439.4" stroke="#EEEDE9"/>
</g>
<defs>
<clipPath id="clip0_6447_8192">
<rect width="1448" height="494" fill="white"/>
</clipPath>
</defs>
</svg>
