<svg width="393" height="587" viewBox="0 0 393 587" fill="none" xmlns="http://www.w3.org/2000/svg">
<g clip-path="url(#clip0_6433_8192)">
<path d="M11.1953 0V1120.69" stroke="#EEEDE9"/>
<path d="M48.1953 0V1120.69" stroke="#EEEDE9"/>
<path d="M85.1953 0V1120.69" stroke="#EEEDE9"/>
<path d="M122.195 0V1120.69" stroke="#EEEDE9"/>
<path d="M159.195 0V1120.69" stroke="#EEEDE9"/>
<path d="M196.195 0V1120.69" stroke="#EEEDE9"/>
<path d="M233.195 0V1120.69" stroke="#EEEDE9"/>
<path d="M270.195 0V1120.69" stroke="#EEEDE9"/>
<path d="M307.195 0V1120.69" stroke="#EEEDE9"/>
<path d="M344.195 0V1120.69" stroke="#EEEDE9"/>
<path d="M381.195 0V1120.69" stroke="#EEEDE9"/>
<path d="M-544 0H899.398" stroke="#EEEDE9"/>
<path d="M-544 44.8359H899.398" stroke="#EEEDE9"/>
<path d="M-544 89.6719H899.398" stroke="#EEEDE9"/>
<path d="M-544 134.523H899.398" stroke="#EEEDE9"/>
<path d="M-544 179.352H899.398" stroke="#EEEDE9"/>
<path d="M-544 224.203H899.398" stroke="#EEEDE9"/>
<path d="M-544 269.023H899.398" stroke="#EEEDE9"/>
<path d="M-544 313.867H899.398" stroke="#EEEDE9"/>
<path d="M-544 358.711H899.398" stroke="#EEEDE9"/>
<path d="M-544 403.539H899.398" stroke="#EEEDE9"/>
<path d="M-544 448.391H899.398" stroke="#EEEDE9"/>
<path d="M-544 493.234H899.398" stroke="#EEEDE9"/>
<path d="M-544 538.07H899.398" stroke="#EEEDE9"/>
<path d="M-544 582.914H899.398" stroke="#EEEDE9"/>
</g>
<defs>
<clipPath id="clip0_6433_8192">
<rect width="393" height="587" fill="white"/>
</clipPath>
</defs>
</svg>
